<?xml version="1.0" encoding="UTF-8"?>
<svg id="Layer_2" data-name="Layer 2" xmlns="http://www.w3.org/2000/svg" viewBox="0 0 117.83 169.12">
  <defs>
    <style>
      .cls-1 {
        fill: #833b88;
      }

      .cls-2 {
        fill: #00365d;
      }

      .cls-3 {
        fill: #42b742;
      }

      .cls-4 {
        fill: #f4ca56;
      }
    </style>
  </defs>
  <g id="Layer_1-2" data-name="Layer 1">
    <path class="cls-1" d="m49.25,155.79c8.52,1.25,17.92,1.47,26.08-1.68,7.73-2.98,14.44-8.41,18.86-15.43,6.29-9.99,7.58-22.64,3.5-33.71-3.11-8.42-9.39-15.22-12.65-23.58-3.02-7.73-4.57-16.47-3.13-24.71,1.01-5.79,3.54-11.19,7.26-15.72-.99,1.21-.8,5.31-.89,6.86-.13,2.19-.11,4.38.1,6.57.4,4.14,1.49,8.18,3.13,11.99,1.83,4.26,4.42,8.14,7.24,11.8,2.61,3.39,5.55,6.44,8.14,9.86,5.27,6.97,8.84,15.22,10.24,23.84.03.17.06.35.08.52,2.32,15.16-1.76,33.02-14.09,43-6.67,5.4-15.32,8.06-23.9,8.25-5.42.12-10.84-.71-16.05-2.2-2.53-.72-5.16-1.52-7.55-2.65-2.16-1.02-3.87-2.65-6.38-3.02Z"/>
    <path class="cls-2" d="m62.88,167.01c-8.49,3.04-18.12,2.25-27.02,1.04-16.91-2.1-29.56-15.21-33.97-31.24-2.73-10.83-2.24-21.72-.22-32.39,1.8-12.72,7.92-24.98,16.3-33.74-5.46,9.28-8.25,19.8-8.22,30.09-.36,15.05,8.02,28.57,17.34,39.6,6.6,7.07,12.82,14.65,21.32,19.89,4.37,2.85,9.29,4.66,14.47,6.75h0Z"/>
    <path class="cls-4" d="m81.63,139.1c-3.29-33.93-32.52-50.98-43.67-81.36-6.92-19.19-5.37-46.72,14.1-57.74-6.05,19.42-8.71,32.3,2.3,50.23,8.07,12.84,19.64,24.18,27.28,37.9,8.7,15.16,12.24,36.67,0,50.97h0Z"/>
    <circle class="cls-2" cx="43.38" cy="136.06" r="7.92"/>
    <circle class="cls-3" cx="25.77" cy="60.34" r="7.92"/>
    <circle class="cls-1" cx="105.01" cy="69.14" r="7.92"/>
    <circle class="cls-4" cx="57.46" cy="30.4" r="7.92"/>
    <path class="cls-3" d="m76.84,3.99c15.37,18.1,5.17,45.59-9.64,60.98-5.43,6.14-15.3,15.82-21.14,21.75-7.89,7.89-15.8,16.19-17.95,27.66-1.17,5.7-1.14,11.8-.58,18.17-3.56-5.47-5.98-11.71-6.86-18.28-3.87-26.51,11.56-50.86,33.24-64.84,5.75-3.67,11.64-7.67,16.01-12.92,7.34-8.91,9.96-20.92,6.92-32.52h0Z"/>
  </g>
</svg>